PathFileType	4	(X/Y/Z)	/Users/visionmauri/Downloads/Videos/OAW02-top_Sports2D/OAW02-top_Sports2D_px_person00.trc
DataRate	CameraRate	NumFrames	NumMarkers	Units	OrigDataRate	OrigDataStartFrame	OrigNumFrames
30.0	30.0	8	22	m	30.0	0	2158
Frame#	Time	Hip			RHip			RKnee			RAnkle			RBigToe			RSmallToe			RHeel			LHip			LKnee			LAnkle			LBigToe			LSmallToe			LHeel			Neck			Head			Nose			RShoulder			RElbow			RWrist			LShoulder			LElbow			LWrist			
		X1	Y1	Z1	X2	Y2	Z2	X3	Y3	Z3	X4	Y4	Z4	X5	Y5	Z5	X6	Y6	Z6	X7	Y7	Z7	X8	Y8	Z8	X9	Y9	Z9	X10	Y10	Z10	X11	Y11	Z11	X12	Y12	Z12	X13	Y13	Z13	X14	Y14	Z14	X15	Y15	Z15	X16	Y16	Z16	X17	Y17	Z17	X18	Y18	Z18	X19	Y19	Z19	X20	Y20	Z20	X21	Y21	Z21	X22	Y22	Z22
0	0.0	623.5351652312419	764.1305849063403	0.0	612.6583359522963	764.2421626758518	0.0	614.1826790518136	800.8146745421591	0.0	612.714134897854	840.2685312990847	0.0	614.2385427990209	851.3128167260978	0.0	605.5000875721281	852.7814905963131	0.0	616.1536586627177	850.5872327302772	0.0	634.4120003697229	767.5700378522682	0.0	632.6084910132998	800.9263187783581	0.0	632.441029120996	840.2686354331662	0.0	632.4409842789029	849.6768273554754	0.0	639.5991224450516	849.5651127572514	0.0	629.0015114764861	847.3151443996667	0.0	632.3293310382901	716.5871762845032	0.0	632.608421020574	682.376225805322	0.0	635.7129990251688	719.0777518982098	0.0	612.323305962347	715.4533553595994	0.0	598.174357307335	739.680316563966	0.0	599.308111866228	768.4806037663421	0.0	647.3714130304712	717.3125939621143	0.0	651.0343191501639	741.7069563430524	0.0	649.2867238676081	770.2281330669878	0.0
1	0.03334878689537939	623.4984753627065	764.7346952285827	0.0	612.6871368235664	764.9196350897374	0.0	614.0019254264078	801.4761431684738	0.0	612.7800551460552	840.4150720597298	0.0	614.1094422001795	851.4991155360449	0.0	605.6331086377338	852.7393576064025	0.0	616.0797807508653	850.3117615432714	0.0	634.3103483515438	768.0329675836822	0.0	632.5225725363753	801.6590825222553	0.0	632.2480692654613	840.416201806312	0.0	632.2500544430535	849.9890890516283	0.0	639.3067040332335	849.8064181374525	0.0	628.9514152507505	847.2909448033897	0.0	632.069748558814	716.0417091786467	0.0	632.5276010562836	682.1833245852331	0.0	635.2829506247945	717.7906451980072	0.0	612.1430077722589	715.3551077065766	0.0	598.3097819959467	739.8634074597859	0.0	598.9896717008048	768.3574662835312	0.0	647.3693730335712	717.2291522192672	0.0	651.0314980849507	742.0109486391874	0.0	649.3361368508968	770.0530216615321	0.0
2	0.06669757379075877	623.4205664194451	766.0763617769765	0.0	612.7555009702364	766.4295326165357	0.0	613.6213488424565	802.9428026744264	0.0	612.9295638459845	840.7315042115104	0.0	613.8123531816763	851.9076794968768	0.0	605.9207053068666	852.6338630757955	0.0	615.9120581131219	849.6902495521648	0.0	634.0835565216967	769.0624445255286	0.0	632.3356395360647	803.2947007415787	0.0	631.8239921219593	840.7460578449287	0.0	631.8110832909208	850.6821005490985	0.0	638.6469599197782	850.3418615203386	0.0	628.8389318082511	847.2300072890366	0.0	631.5069032433707	714.8174141800763	0.0	632.3590997501839	681.7348838996586	0.0	634.3271864612633	714.8906054377456	0.0	611.7492221200432	715.126480842993	0.0	598.6098928645589	740.275873973648	0.0	598.3090282251145	768.0761423249203	0.0	647.3623407535935	717.0432538913693	0.0	651.0177863282669	742.714966793875	0.0	649.4286929601881	769.68118470807	0.0
3	0.10004636068613816	623.3061622348698	768.1097427219763	0.0	612.8635076235139	768.7077591999832	0.0	613.1073136567246	805.1522359733655	0.0	613.1545683899687	841.2019051686533	0.0	613.3635367253834	852.5229991527475	0.0	606.3600695667055	852.4613803475056	0.0	615.6542119540238	848.7382698889883	0.0	633.7412380465912	770.6246966540807	0.0	632.0575079674801	805.7575394640664	0.0	631.1867522616129	841.2289744161382	0.0	631.1478138030902	851.7178014157735	0.0	637.640561215253	851.1376153470169	0.0	628.6659841135549	847.1113170177933	0.0	630.6370606836294	712.9797769223662	0.0	632.0855958311387	681.0936773442901	0.0	632.8401790622216	710.49899336683	0.0	611.136097101685	714.7867337358099	0.0	599.0403534164502	740.8953798947515	0.0	597.2856715352679	767.6485211002574	0.0	647.3362310314891	716.7830511601675	0.0	650.9938115947484	743.791590237834	0.0	649.5691325963382	769.1082041029243	0.0
4	0.13339514758151755	623.1870461439922	770.1906409004627	0.0	612.9716973407951	770.9884443032745	0.0	612.6970954906903	807.3808606892027	0.0	613.3688014791182	841.6876206265437	0.0	612.9468132422452	853.1589058571848	0.0	606.8490554208646	852.2897226565719	0.0	615.3921278576607	847.768756696795	0.0	633.3989445689072	772.2237778130041	0.0	631.7744864974637	808.1981640281392	0.0	630.5350623923899	841.6638298246294	0.0	630.5291697661019	852.734544372246	0.0	636.6272266924309	851.904644054861	0.0	628.4863869657131	846.9355617854642	0.0	629.6448767895993	711.2042295106775	0.0	631.7085271429706	680.6304304194396	0.0	631.2021444064176	706.1704951717077	0.0	610.4336869444068	714.4996919732248	0.0	599.4079076575281	741.4913798051408	0.0	596.1661193309038	767.2362311660681	0.0	647.270727782103	716.5861367711763	0.0	650.9869269804979	744.8167560884723	0.0	649.7775221896669	768.429437590651	0.0
5	0.16674393447689695	623.0807085544373	771.6320766620489	0.0	613.0183799858596	772.4876039058184	0.0	612.5295665072454	808.908002004326	0.0	613.4836311009046	842.0815673453714	0.0	612.7612841653581	853.6349894312879	0.0	607.2721129621746	852.2471335808443	0.0	615.2336655039786	847.1601465209657	0.0	633.1755058682052	773.3219389341898	0.0	631.5563589358708	809.762939926035	0.0	630.057011085939	841.8971770992883	0.0	630.2462284356724	853.4006611519918	0.0	636.0009776639329	852.392633660818	0.0	628.3676581243201	846.8061392430567	0.0	628.7778656072912	710.1570058095596	0.0	631.2868977407185	680.6159149338234	0.0	629.9601798568391	703.5844290717254	0.0	609.8350924054939	714.4243133750955	0.0	599.5963738632496	741.8342752113301	0.0	595.1617610271608	767.0228816385825	0.0	647.202742085017	716.5208686433915	0.0	651.0440316728833	745.2793337165388	0.0	650.0888129592016	767.7673194855677	0.0
6	0.20009272137227632	622.9903412031729	772.1768940264689	0.0	612.959619030277	773.0039599457432	0.0	612.5511728538955	809.5582106278374	0.0	613.5109213053901	842.3547157011827	0.0	612.8298604509188	853.8896917358109	0.0	607.52779312323	852.4191072173414	0.0	615.2127456463732	847.0793909715866	0.0	633.1000087760084	773.7150295873294	0.0	631.4222282715436	810.2846640161066	0.0	629.8181502633122	842.0122890803369	0.0	630.3211411111437	853.6847609656302	0.0	635.894412347996	852.6178425630552	0.0	628.3602520615233	846.9224041310476	0.0	628.3155913402097	709.9337588412996	0.0	631.0186299902931	680.6951088977062	0.0	629.6244217703305	703.161152147762	0.0	609.58908235133	714.5399014459998	0.0	599.7362475367686	741.9466814025925	0.0	594.4246753218333	767.1101278273278	0.0	647.2492410935674	716.4609079040406	0.0	651.173800910268	745.0737986965283	0.0	650.4465764391138	767.406327340153	0.0
7	0.2334415082676557	622.9300272870009	772.1703841757651	0.0	612.8198674884542	773.0151205005187	0.0	612.6240410225153	809.792374429573	0.0	613.563298360791	842.5280556234069	0.0	612.9869087808522	853.984675115676	0.0	607.6208729835159	852.6855030273542	0.0	615.211370342482	847.285869605025	0.0	633.0990826854198	773.7022753075414	0.0	631.3778154998694	810.3356626849602	0.0	629.7705382650419	842.2038500302863	0.0	630.4532518236833	853.7785632120706	0.0	636.0248155192924	852.7549042711361	0.0	628.4636765919744	847.2703976942904	0.0	628.299163406389	710.1028126123668	0.0	630.9820690675731	680.2722676182116	0.0	630.0257228816013	703.651335638268	0.0	609.7364194321609	714.697973518993	0.0	599.955338620437	742.146828810926	0.0	594.0345891917116	767.5094360684723	0.0	647.4102819879396	716.3289812424988	0.0	651.2798964482371	744.7848068153054	0.0	650.7363049409634	767.6964293468428	0.0
